<svg width="681" height="221" viewBox="0 0 681 221" fill="none" xmlns="http://www.w3.org/2000/svg">
<rect width="681" height="221" fill="white"/>
<path d="M58.5 45.8555V44.8506C58.5 37.8282 60.519 30.954 64.3164 25.0469C65.5175 23.1786 66.8862 21.423 68.4053 19.8027L69.9219 18.1846C74.879 12.897 81.2271 9.11407 88.2363 7.26953C91.4385 6.4269 94.7357 6.00001 98.0469 6H99.7715C105.097 6 110.376 6.99593 115.335 8.93652L117.327 9.71582C122.725 11.828 127.501 15.2708 131.212 19.7236C133.342 22.2801 135.09 25.1327 136.401 28.1914L136.835 29.2012C138.336 32.7037 139.352 36.3956 139.855 40.1729L140.5 45.0049V46C140.5 48.832 140.139 51.649 139.432 54.3848C139.844 54.5834 140.251 54.7921 140.652 55.0146L141.358 55.4219L142.078 55.8535C146.39 58.4407 149.667 62.4398 151.36 67.1641L151.52 67.624L151.654 68.043C152.469 70.6628 152.775 73.3983 152.574 76.1055L158.703 71.0195C158.589 70.4904 158.495 69.956 158.423 69.417L158.151 67.3809C157.416 61.8636 158.354 56.2528 160.843 51.2744L161.326 50.3066C163.956 44.0853 169.073 39.228 175.46 36.9385L196.282 29.4736L196.826 29.2881C201.394 27.8106 206.322 28.2022 210.56 30.3027L211.749 30.501C214.644 30.9835 217.404 32.0751 219.847 33.7031L219.874 33.7217C220.992 34.4671 222.035 35.3218 222.985 36.2725L223.273 36.5664C224.602 37.9497 225.729 39.5133 226.621 41.2109L226.81 41.5771L227.048 42.0547C228.005 43.59 228.805 45.2178 229.434 46.9141L229.73 47.7568L229.912 48.3027L230.552 50.8623L230.639 51.208L231.633 56.1797C231.877 57.3999 232 58.6415 232 59.8857V60.9756C232 61.0657 231.998 61.1562 231.996 61.2461L234.853 67.2939C235.155 67.9347 235.707 68.4243 236.379 68.6484L237.49 69.0186L238.207 69.3447C239.4 69.8869 240.715 70.1039 242.019 69.9736L247.015 69.4736L276.141 70.4951C278.16 70.4472 280.054 69.3732 281.144 67.6348L281.611 66.6064C283.502 62.4474 286.125 58.6621 289.355 55.4316L290.601 54.1855C293.309 47.1037 299.009 41.6212 306.12 39.166L307.24 37.2471C310.793 31.1561 316.34 26.478 322.942 24.002C335.516 19.2868 349.695 23.3121 357.916 33.9307L359.133 35.502C366.998 36.9493 373.835 41.8153 377.769 48.8027L378.158 49.5215L378.5 50.1953C381.923 57.2004 382.155 65.3592 379.107 72.5625L378.499 74H379.993C385.881 74 391.637 75.7401 396.54 79H400.115C403.247 79 406.359 79.4966 409.335 80.4688L411.672 78.3125C417.114 73.2894 424.248 70.5 431.653 70.5C434.622 70.5 437.572 70.949 440.404 71.8301L440.97 72.0117L443.187 72.751C444.065 73.0436 445.014 73.0452 445.894 72.7568L455.133 69.7275C455.618 56.8649 468.988 45.968 483.031 51.7715L483.466 51.9561L495.572 57.2529C501.363 59.7863 505.911 64.5043 508.236 70.3721L529.163 75.6738C532.872 76.6134 536.747 76.6894 540.49 75.8955L546.953 74.5234C549.86 73.3758 551.963 70.7711 552.45 67.6553L552.784 65.5176L554.114 60.1953C557.093 48.2812 565.784 38.6189 577.317 34.3994C587.482 30.6809 598.764 31.5943 608.197 36.9004L610.12 37.9824C616.332 41.4767 621.251 46.8825 624.146 53.3955C626.027 57.6293 627 62.2108 627 66.8438V68.7959C627 71.5821 626.725 74.3612 626.179 77.0928L625.664 79.666C625.555 80.211 625.5 80.7657 625.5 81.3213V85.7988C625.5 85.8531 625.528 85.9039 625.573 85.9336L625.654 85.9873C627.954 85.311 630.348 85.0036 632.745 85.0801L633.278 85.1035L633.858 85.1426C646.003 86.1256 655.226 96.6061 654.582 108.844L654.523 109.952L654.907 116.48C656.484 126.399 648.372 135.65 637.9 134.845L633.421 134.5H631.744C630.724 134.5 629.718 134.747 628.814 135.221C627.685 135.812 626.761 136.732 626.164 137.859L625.705 138.728C625.461 139.189 625.255 139.67 625.09 140.166L623.408 145.207C622.552 154.165 615.734 161.543 606.689 162.972L602.855 163.577C600.259 163.987 597.613 163.976 595.02 163.544L586.514 162.126L581.105 160.436C576.387 158.961 571.337 158.919 566.594 160.313L562.853 161.414L560.725 172.363L557.454 188.717C555.909 196.441 549.127 202 541.251 202C539.45 202 537.66 201.706 535.952 201.128L518.616 195.26C505.428 190.796 494.424 181.497 487.823 169.238L481.561 157.608L481.409 157.371C480.669 157.456 479.922 157.5 479.171 157.5H469.228C467.014 157.5 464.804 157.339 462.614 157.017L453.803 155.721C451.586 155.395 449.33 155.462 447.137 155.919L444.813 156.402C440.562 157.288 436.186 157.399 431.896 156.729L428.259 156.159C421.092 163.763 409.972 166.398 400.062 162.623L399.739 162.5H368.177C361.458 162.5 354.861 160.703 349.07 157.297C348.358 156.878 347.583 156.576 346.774 156.404L329.873 152.809C326.122 152.011 322.685 150.257 319.867 147.768L308.34 151.697L308.292 151.714L308.243 151.73L293.401 156.678C287.793 158.547 281.92 159.5 276.009 159.5H270.424L244.421 157.5H235.889C235.085 157.5 234.286 157.452 233.494 157.359C234.76 163.636 233.326 170.233 229.407 175.458L229.406 175.457L229.337 175.551C228.687 176.418 227.976 177.238 227.21 178.004L227.12 178.093C220.139 185.074 209.67 187.223 200.503 183.557L197.763 182.461C192.606 180.398 188.146 176.906 184.907 172.395L175.967 159.942L175.275 160.041C167.453 161.158 159.617 158.534 154.059 153.058L131.071 154.883L123.24 156.449C117.39 157.619 111.368 156.426 106.444 153.228L97.0918 154.459C95.9131 154.614 94.7509 154.877 93.6201 155.244L85.8232 157.772C78.8397 160.037 71.4731 160.881 64.1582 160.254L58.6143 159.779C53.8355 159.37 49.2073 157.903 45.0645 155.486L42.415 153.941C34.1082 149.095 29 140.201 29 130.584C29.0001 125.297 30.5486 120.19 33.3691 115.85C32.3598 114.827 31.4076 113.748 30.5205 112.614L28.2051 109.656C22.0158 101.747 20.1242 91.2953 23.1484 81.7188C23.8662 79.446 24.848 77.2654 26.0742 75.2217L26.791 74.0264C31.1791 66.713 37.6764 60.8973 45.4297 57.3438L46.3711 56.9121C49.7145 55.3797 53.2318 54.2575 56.8447 53.5693L59.252 53.1104C58.753 50.7275 58.5 48.2962 58.5 45.8555Z" fill="black"/>
<path d="M633.995 96.1223C635.312 96.1964 636.348 96.8533 637.102 98.0929C637.856 99.3325 638.384 100.87 638.685 102.706C639.066 104.5 639.275 106.307 639.312 108.128C639.369 109.888 639.379 111.366 639.342 112.561C639.306 113.756 639.288 114.354 639.288 114.354C639.288 114.354 638.507 114.279 636.945 114.128C635.464 113.936 633.53 113.905 631.144 114.035C628.838 114.123 626.409 114.608 623.856 115.49C622.349 116.027 620.846 116.767 619.347 117.708C617.848 118.65 616.388 120.006 614.967 121.776C613.565 123.485 612.177 125.902 610.804 129.027C610.108 130.621 609.546 132.322 609.117 134.133C608.689 135.943 608.285 137.46 607.905 138.682C607.624 139.801 607.53 140.643 607.623 141.208C607.796 141.731 607.926 142.173 608.014 142.536C606.992 143.023 605.269 143.392 602.845 143.644C600.501 143.854 598.076 143.57 595.57 142.791C593.126 142.032 591.569 140.677 590.902 138.727C590.234 136.777 590.337 134.397 591.211 131.585C591.42 130.913 591.845 129.437 592.486 127.156C593.208 124.834 594.041 122.043 594.987 118.785C595.993 115.546 597.007 112.175 598.028 108.672C599.11 105.188 600.086 101.94 600.955 98.9259C601.905 95.87 602.643 93.3852 603.171 91.4716C603.759 89.5769 604.054 88.6296 604.054 88.6296C604.703 88.6972 605.77 88.9284 607.256 89.323C608.803 89.7366 610.434 90.3104 612.15 91.0444C613.865 91.7784 615.383 92.7189 616.702 93.8659C617.34 94.3993 618.223 95.0088 619.35 95.6941C620.558 96.3373 621.742 96.8393 622.904 97.2001C624.126 97.5799 625.069 97.6719 625.733 97.4761C627.16 96.9812 628.549 96.6085 629.901 96.3581C631.313 96.1267 632.678 96.0481 633.995 96.1223Z" fill="white"/>
<path d="M576.3 118.429C576.62 119.802 577.029 121.483 577.528 123.474C578.09 125.453 578.861 127.328 579.84 129.099C580.819 130.87 582.106 132.194 583.7 133.07C582.325 134.431 580.86 135.484 579.306 136.227C577.763 137.034 576.182 137.457 574.562 137.497C574.098 137.453 573.597 137.383 573.058 137.288C572.532 137.255 571.804 137.194 570.877 137.106C569.348 136.934 567.631 137.154 565.727 137.767C563.823 138.381 561.836 139.074 559.766 139.848C557.771 140.674 555.767 141.273 553.753 141.646C550.481 142.253 547.104 142.293 543.622 141.766C540.128 141.177 536.832 139.9 533.734 137.936C530.636 135.971 528.045 133.23 525.961 129.711C523.877 126.191 522.628 121.736 522.215 116.345C521.916 112.626 522.337 109.098 523.476 105.762C524.603 102.364 526.19 99.3363 528.236 96.679C530.334 93.9471 532.656 91.7267 535.203 90.018C537.802 88.2346 540.428 87.1295 543.083 86.7027C545.108 86.3924 546.662 86.1696 547.743 86.0343C548.888 85.8873 550.364 85.7764 552.173 85.7016C553.266 85.6292 554.59 85.2211 556.144 84.4774C557.699 83.7337 559.247 82.9586 560.79 82.1519C562.384 81.2707 563.779 80.7193 564.975 80.4977C566.788 80.0966 568.09 79.9205 568.88 79.9693C569.658 79.9552 570.311 79.9645 570.838 79.997C570.67 81.1997 570.67 82.9571 570.839 85.2692C571.007 87.5812 571.296 90.1963 571.707 93.1143C572.168 95.9578 572.654 98.9271 573.162 102.022C573.671 105.117 574.187 108.081 574.712 110.913C575.3 113.733 575.829 116.238 576.3 118.429ZM539.199 116.322C539.908 119.445 540.929 121.795 542.263 123.37C543.647 124.871 545.128 125.833 546.703 126.257C548.342 126.67 549.853 126.747 551.238 126.491C554.018 126.041 555.865 124.592 556.778 122.145C557.692 119.697 557.755 116.528 556.969 112.639C556.771 111.569 556.412 110.334 555.892 108.933C555.435 107.52 554.795 106.175 553.972 104.895C553.212 103.604 552.273 102.574 551.154 101.805C550.098 101.024 548.846 100.768 547.399 101.036C544.504 101.573 542.154 103.115 540.348 105.662C538.605 108.199 538.222 111.752 539.199 116.322Z" fill="white"/>
<path d="M504.489 122.797C504.702 123.362 505.241 124.417 506.106 125.961C506.971 127.506 507.937 129.201 509.003 131.046C510.144 132.842 511.216 134.493 512.219 136C513.297 137.457 514.113 138.436 514.665 138.938C513.207 140.996 511.167 142.382 508.543 143.095C505.982 143.822 503.315 143.776 500.542 142.959C497.756 142.204 495.297 140.633 493.164 138.247C492.688 137.695 492.029 136.747 491.189 135.403C490.425 134.009 489.723 132.628 489.083 131.26C488.444 129.891 487.679 128.498 486.789 127.079C485.974 125.61 484.977 124.887 483.797 124.912C483.207 124.924 482.585 125.256 481.932 125.908C481.342 126.573 480.921 127.533 480.669 128.788C480.455 129.855 480.467 130.934 480.705 132.027C481.005 133.131 481.156 133.684 481.156 133.684C481.156 133.684 480.716 133.922 479.837 134.398C479.021 134.887 477.941 135.389 476.598 135.902C475.255 136.416 473.861 136.691 472.418 136.728C470.974 136.765 469.513 136.243 468.032 135.163C466.627 134.032 465.511 132.601 464.684 130.868C463.869 129.073 463.619 127.228 463.934 125.332C464.035 124.83 464.268 123.506 464.633 121.36C465.074 119.164 465.584 116.46 466.163 113.247C466.818 109.984 467.529 106.439 468.297 102.611C469.078 98.7203 469.827 94.8236 470.545 90.9205C471.338 86.9673 472.056 83.2275 472.698 79.7009C473.416 76.1242 474.026 73.0808 474.53 70.5709C474.857 68.9394 475.053 67.3141 475.117 65.695C475.181 64.0759 475.156 62.7329 475.044 61.6659C475.007 60.5488 474.989 59.9903 474.989 59.9903C475.578 59.9781 476.557 60.1419 477.925 60.4816C479.368 60.7712 480.937 61.2491 482.631 61.9154C484.401 62.5316 486.069 63.3233 487.638 64.2908C489.281 65.208 490.586 66.351 491.552 67.7197C492.58 69.101 493.018 70.6577 492.867 72.3897C492.829 72.9043 492.64 74.0087 492.3 75.7029C492.035 77.347 491.708 79.1417 491.317 81.0869C490.94 82.9694 490.593 84.5318 490.279 85.7742C489.838 87.6441 489.775 89.2632 490.088 90.6315C490.413 91.937 491.021 92.9729 491.912 93.7391C492.79 94.568 493.938 95.0269 495.356 95.1156C496.837 95.217 498.482 94.9921 500.29 94.4409C501.193 94.1654 502.493 93.708 504.188 93.069C505.882 92.4299 507.615 91.7658 509.385 91.0765C511.218 90.3999 512.737 89.8235 513.942 89.3473C515.21 88.8837 515.844 88.6519 515.844 88.6519C516.321 89.2044 516.835 90.2214 517.386 91.7028C517.938 93.1842 518.357 94.835 518.645 96.6551C518.932 98.4753 518.893 100.295 518.528 102.115C518.239 103.885 517.422 105.353 516.078 106.519C515.839 106.732 515.394 107.002 514.741 107.328C514.151 107.666 513.284 108.08 512.142 108.569C509.995 109.509 508.382 110.556 507.301 111.71C506.297 112.814 505.455 114.081 504.776 115.511C504.286 116.653 504.009 117.87 503.945 119.163C503.882 120.456 504.063 121.667 504.489 122.797Z" fill="white"/>
<path d="M450.743 121.663C451.444 124.391 452.298 126.23 453.307 127.178C454.364 128.049 454.892 128.484 454.892 128.484C454.892 128.484 454.426 129.02 453.492 130.091C452.606 131.086 451.354 132.199 449.735 133.429C448.115 134.66 446.184 135.537 443.939 136.059C440.636 136.827 438.275 136.423 436.857 134.847C435.439 133.272 434.366 131.057 433.636 128.204C433.52 127.706 433.298 126.607 432.969 124.91C432.64 123.212 432.229 121.304 431.736 119.184C431.291 116.988 430.827 114.993 430.344 113.2C429.847 111.344 429.418 110.064 429.057 109.36C427.791 107.026 426.197 106.247 424.275 107.022C422.76 107.572 421.505 108.816 420.511 110.756C419.502 112.633 418.815 114.764 418.449 117.149C418.084 119.534 418.126 121.693 418.576 123.625C418.808 124.622 418.977 125.634 419.084 126.661C419.24 127.61 419.38 128.497 419.506 129.322C419.574 129.898 419.796 130.569 420.172 131.336C420.61 132.088 421.198 132.641 421.938 132.995C421.675 133.844 421.027 135.014 419.994 136.503C419.022 137.977 417.905 139.387 416.64 140.732C415.424 142.001 414.301 142.82 413.27 143.191C412.287 143.486 411.03 143.45 409.499 143.083C408.031 142.702 406.638 141.941 405.322 140.802C404.068 139.648 403.185 138.112 402.673 136.194C402.557 135.695 402.289 134.542 401.869 132.734C401.511 130.912 401.034 128.723 400.44 126.167C399.908 123.597 399.308 120.878 398.642 118.011C398.037 115.129 397.423 112.347 396.8 109.667C396.176 106.987 395.64 104.68 395.19 102.748C394.799 101.065 394.204 99.4946 393.405 98.0377C392.654 96.5039 391.944 95.2891 391.276 94.3932C390.656 93.4204 390.345 92.9341 390.345 92.9341C390.877 92.6789 391.822 92.3607 393.179 91.9794C394.598 91.5836 396.195 91.2451 397.969 90.9638C399.744 90.6826 401.523 90.5644 403.308 90.6093C405.155 90.6397 406.779 90.9847 408.181 91.6443C409.645 92.2894 411.029 92.5916 412.334 92.551C413.687 92.4336 414.686 92.0697 415.333 91.4594C417.181 89.5182 419.104 87.7568 421.102 86.1752C423.099 84.5935 425.129 83.4316 427.19 82.6893C428.221 82.3182 429.482 82.0906 430.974 82.0065C432.451 81.86 433.963 82.0013 435.508 82.4304C437.116 82.845 438.578 83.622 439.894 84.7615C441.273 85.8864 442.333 87.4796 443.075 89.541C444.353 93.055 445.507 97.4519 446.538 102.732C447.554 107.949 448.956 114.26 450.743 121.663Z" fill="white"/>
<path d="M372.212 124.094C371.824 125.449 371.364 127.118 370.833 129.1C370.363 131.103 370.126 133.116 370.121 135.14C370.116 137.164 370.597 138.946 371.565 140.486C369.702 141.008 367.91 141.216 366.19 141.111C364.45 141.066 362.862 140.668 361.427 139.915C361.043 139.651 360.639 139.347 360.215 139.002C359.77 138.717 359.164 138.311 358.396 137.783C357.144 136.89 355.536 136.248 353.574 135.859C351.612 135.47 349.538 135.111 347.353 134.782C345.208 134.534 343.165 134.083 341.224 133.431C338.069 132.371 335.098 130.765 332.31 128.613C329.543 126.401 327.283 123.683 325.53 120.461C323.777 117.239 322.844 113.584 322.733 109.495C322.621 105.407 323.694 100.906 325.953 95.9936C327.499 92.5972 329.58 89.7182 332.197 87.3566C334.834 84.9342 337.692 83.0589 340.771 81.7305C343.932 80.3618 347.04 79.5496 350.097 79.2938C353.235 78.9978 356.067 79.3081 358.595 80.2249C360.516 80.9379 361.982 81.498 362.993 81.9052C364.064 82.3327 365.409 82.9532 367.026 83.7666C368.016 84.2345 369.372 84.5211 371.092 84.6264C372.812 84.7317 374.542 84.8067 376.282 84.8513C378.104 84.8557 379.591 85.0515 380.744 85.4388C382.523 85.9693 383.747 86.4478 384.414 86.8744C385.101 87.2404 385.667 87.5655 386.111 87.85C385.38 88.8197 384.527 90.3558 383.55 92.4582C382.574 94.5607 381.556 96.9869 380.497 99.7368C379.519 102.446 378.5 105.277 377.441 108.23C376.381 111.182 375.393 114.023 374.476 116.753C373.619 119.504 372.864 121.951 372.212 124.094ZM340.808 104.226C339.91 107.3 339.661 109.849 340.061 111.874C340.542 113.859 341.368 115.419 342.54 116.555C343.771 117.712 345.055 118.514 346.389 118.963C349.038 119.92 351.356 119.552 353.344 117.856C355.331 116.161 356.927 113.422 358.13 109.641C358.476 108.609 358.763 107.355 358.989 105.878C359.276 104.422 359.37 102.935 359.273 101.416C359.236 99.9187 358.915 98.5619 358.311 97.3461C357.767 96.1508 356.798 95.3187 355.403 94.8498C352.612 93.9122 349.808 94.118 346.992 95.4672C344.236 96.8368 342.175 99.7564 340.808 104.226Z" fill="white"/>
<path d="M276.837 81.6435C281.348 80.2028 285.394 79.6164 288.973 79.8844C292.613 80.1328 295.588 80.9294 297.899 82.2743C300.209 83.6191 301.626 85.2158 302.149 87.0643C302.461 88.0397 302.385 89.2734 301.92 90.7653C301.456 92.2572 300.659 93.6538 299.53 94.9552C298.441 96.1761 297.045 96.9579 295.341 97.3006C295.417 96.0669 294.812 95.1181 293.525 94.4542C292.238 93.7902 290.582 93.4454 288.559 93.4198C286.515 93.3332 284.417 93.6002 282.264 94.2206C279.786 94.8775 278.228 95.6775 277.588 96.6207C276.93 97.5029 276.656 98.3293 276.768 99.0998C276.838 99.9508 277.428 100.535 278.537 100.853C279.626 101.109 280.981 101.248 282.6 101.268C284.26 101.209 285.972 101.099 287.735 100.939C289.539 100.698 291.182 100.476 292.662 100.272C294.203 100.049 295.408 99.9327 296.279 99.9235C300.287 99.8528 303.427 100.429 305.699 101.652C307.951 102.814 309.633 104.292 310.744 106.087C311.915 107.863 312.742 109.715 313.224 111.644C314.075 114.732 314.1 117.545 313.299 120.086C312.539 122.545 311.287 124.725 309.543 126.626C307.859 128.507 305.956 130.123 303.834 131.472C301.754 132.741 299.737 133.789 297.783 134.614C295.891 135.42 294.426 135.988 293.39 136.319C290.2 137.271 287.106 137.889 284.106 138.175C281.188 138.503 278.576 138.53 276.272 138.258C274.029 137.967 272.316 137.439 271.131 136.675C270.288 136.138 269.378 135.287 268.401 134.121C267.424 132.955 266.631 131.629 266.022 130.144C265.455 128.578 265.313 126.977 265.597 125.342C265.861 123.645 266.823 122.028 268.482 120.49C269.237 121.593 270.563 122.379 272.46 122.848C274.417 123.298 276.621 123.467 279.072 123.356C281.583 123.226 284.006 122.923 286.339 122.447C288.593 121.929 290.656 121.236 292.529 120.369C294.402 119.502 295.245 118.461 295.058 117.244C294.985 116.595 294.486 116.083 293.559 115.707C292.633 115.331 291.126 115.241 289.039 115.437C286.81 115.611 284.865 115.83 283.202 116.092C281.58 116.274 279.949 116.425 278.308 116.546C275.209 116.73 272.339 116.369 269.699 115.466C267.059 114.562 264.84 113.188 263.042 111.344C261.285 109.419 260.16 107.158 259.666 104.561C259.006 100.808 259.372 97.4326 260.766 94.4345C262.221 91.4168 264.379 88.8129 267.241 86.6227C270.102 84.4324 273.301 82.7727 276.837 81.6435Z" fill="white"/>
<path d="M244.824 118.915C244.578 120.303 244.294 122.01 243.97 124.036C243.708 126.076 243.68 128.103 243.883 130.117C244.087 132.13 244.75 133.853 245.871 135.286C244.072 135.997 242.311 136.389 240.589 136.461C238.854 136.596 237.233 136.364 235.728 135.763C235.319 135.54 234.886 135.279 234.428 134.979C233.957 134.742 233.312 134.401 232.494 133.955C231.156 133.195 229.491 132.723 227.499 132.538C225.507 132.353 223.407 132.21 221.2 132.108C219.041 132.082 216.963 131.845 214.965 131.396C211.717 130.667 208.596 129.376 205.602 127.523C202.621 125.607 200.093 123.137 198.017 120.113C195.941 117.089 194.637 113.549 194.104 109.494C193.572 105.438 194.175 100.851 195.915 95.7321C197.103 92.1944 198.877 89.1162 201.236 86.4974C203.609 83.8162 206.258 81.6562 209.185 80.0175C212.187 78.3303 215.196 77.202 218.21 76.6325C221.3 76.0146 224.15 76.0313 226.758 76.6827C228.742 77.1938 230.258 77.5998 231.306 77.9006C232.416 78.2154 233.817 78.6941 235.509 79.3364C236.543 79.6997 237.921 79.8451 239.642 79.7725C241.364 79.7 243.093 79.5962 244.828 79.4612C246.641 79.2778 248.14 79.3193 249.326 79.5857C251.151 79.9299 252.418 80.2798 253.125 80.6354C253.846 80.9285 254.442 81.1936 254.914 81.4307C254.287 82.4706 253.596 84.0865 252.842 86.2784C252.087 88.4703 251.325 90.9885 250.555 93.833C249.861 96.629 249.14 99.5499 248.39 102.596C247.641 105.641 246.951 108.569 246.32 111.379C245.751 114.203 245.253 116.715 244.824 118.915ZM211.54 102.389C210.964 105.539 210.979 108.101 211.586 110.074C212.269 111.998 213.251 113.465 214.533 114.475C215.878 115.498 217.237 116.164 218.611 116.472C221.344 117.152 223.612 116.546 225.414 114.655C227.216 112.764 228.521 109.875 229.328 105.99C229.566 104.928 229.722 103.651 229.794 102.159C229.93 100.681 229.87 99.1914 229.617 97.6914C229.426 96.2054 228.967 94.8889 228.241 93.7419C227.577 92.609 226.527 91.8812 225.09 91.5587C222.218 90.9137 219.451 91.4074 216.788 93.0398C214.188 94.6862 212.439 97.8026 211.54 102.389Z" fill="white"/>
<path d="M172.015 81.589C175.827 81.3502 178.769 81.628 180.841 82.4222C182.975 83.2029 184.501 84.3451 185.417 85.8489C186.382 87.2766 186.919 88.9938 187.027 91.0005C187.198 92.9936 187.164 95.0968 186.924 97.3101C186.764 98.9824 186.441 101.115 185.957 103.709C185.535 106.29 185.064 108.946 184.544 111.679C184.087 114.398 183.638 116.853 183.197 119.045C182.757 121.236 182.468 122.773 182.332 123.654C181.742 126.663 181.154 129.083 180.569 130.913C180.033 132.667 179.378 134.021 178.603 134.975C177.828 135.93 176.772 136.65 175.437 137.137C173.74 137.767 172.136 137.919 170.624 137.593C169.099 137.204 167.812 136.403 166.762 135.19C166.673 135.078 166.412 134.48 165.979 133.395C165.547 132.31 165.108 131.194 164.662 130.046C164.203 128.836 163.839 128.064 163.57 127.73C162.461 125.94 161.051 123.823 159.341 121.379C157.68 118.858 155.884 116.17 153.954 113.314C152.087 110.445 150.201 107.646 148.298 104.916C146.458 102.172 144.772 99.689 143.242 97.4673C141.698 95.183 140.457 93.3896 139.519 92.087C138.63 90.7083 138.185 90.0189 138.185 90.0189C139.096 89.69 140.376 89.2484 142.024 88.6939C143.671 88.1394 145.447 87.7209 147.35 87.4384C149.316 87.1423 151.232 87.2173 153.097 87.6635C154.962 88.1097 156.592 89.131 157.987 90.7273C158.436 91.2848 159.06 92.1971 159.859 93.4643C160.707 94.6554 161.504 95.7595 162.248 96.7765C162.787 97.4455 163.352 98.2395 163.945 99.1587C164.6 100.064 165.291 100.831 166.016 101.459C166.742 102.088 167.487 102.351 168.251 102.251C169.266 102.096 169.99 101.513 170.426 100.501C170.923 99.4764 171.244 98.3915 171.389 97.2468C171.519 96.0395 171.624 95.1654 171.703 94.6243C171.953 93.0636 172.159 91.4471 172.32 89.7749C172.529 88.0265 172.61 86.4372 172.561 85.0069C172.561 83.5006 172.379 82.3612 172.015 81.589Z" fill="white"/>
<path d="M126.703 79.894C124.557 79.5316 122.761 78.5539 121.317 76.961C119.935 75.3806 118.986 73.5927 118.47 71.5974C118.029 69.5519 118.071 67.7005 118.597 66.0433C119.424 63.5324 120.948 61.9435 123.169 61.2766C125.39 60.6097 127.605 60.4637 129.814 60.8385C132.978 61.3382 135.263 62.6418 136.67 64.7494C138.078 66.857 138.556 69.0406 138.106 71.3002C137.806 72.8066 137.155 74.2756 136.152 75.7072C135.211 77.1513 133.938 78.3008 132.332 79.1555C130.739 79.9474 128.863 80.1936 126.703 79.894ZM127.418 128.392C127.255 129.534 127.407 130.576 127.872 131.517C128.412 132.408 129.085 133.292 129.889 134.17C129.337 134.648 128.653 135.131 127.837 135.621C127.022 136.112 125.868 136.502 124.374 136.791C122.956 137.031 120.96 137.058 118.387 136.871C117.559 136.771 116.542 136.471 115.336 135.97C114.119 135.531 112.982 134.685 111.927 133.431C110.947 132.126 110.305 130.269 110.002 127.859C109.712 125.387 110.029 122.155 110.955 118.163C111.155 117.485 111.424 116.135 111.762 114.114C112.162 112.106 112.606 109.714 113.093 106.94C113.643 104.178 114.181 101.316 114.706 98.3536C115.293 95.4036 115.806 92.667 116.243 90.1438C116.756 87.5704 117.137 85.4929 117.387 83.9112C117.712 82.2793 117.875 81.4633 117.875 81.4633C118.452 81.5131 119.406 81.6378 120.737 81.8377C122.143 81.9872 123.649 82.2873 125.256 82.738C126.863 83.1886 128.369 83.815 129.776 84.6173C131.257 85.3692 132.432 86.3536 133.299 87.5705C134.228 88.7998 134.619 90.2806 134.469 92.0128C134.308 94.4605 133.796 97.6866 132.933 101.691C132.082 105.633 131.125 109.945 130.062 114.628C129.011 119.247 128.13 123.835 127.418 128.392Z" fill="white"/>
<path d="M61.8834 62.5244C65.5662 61.6906 69.2413 61.5475 72.9088 62.0952C76.6245 62.5663 79.8774 63.6015 82.6675 65.2009C85.52 66.7861 87.4402 68.7465 88.4284 71.0819C89.1079 72.6342 89.2993 74.4938 89.0025 76.6609C88.6916 78.7655 87.8942 80.7506 86.6105 82.6161C85.3126 84.4192 83.5231 85.6446 81.2418 86.2924C80.4303 86.4761 79.3792 86.6157 78.0884 86.7111C76.7976 86.8065 75.4956 86.7075 74.1824 86.4143C72.9317 86.1069 71.8428 85.5003 70.916 84.5947C71.7392 83.8833 72.2433 83.2114 72.4282 82.579C72.6131 81.9465 72.5795 81.3635 72.3275 80.83C71.7952 79.6382 70.8129 78.7778 69.3808 78.249C68.0111 77.7061 66.4312 77.5388 64.641 77.7473C63.614 77.8486 62.4663 78.1412 61.1979 78.6253C59.9153 79.0469 58.7971 79.7594 57.8431 80.7629C56.9374 81.6897 56.4498 83.0141 56.3803 84.736C56.3427 85.7288 56.6071 86.7517 57.1735 87.8046C57.7883 88.7809 58.8954 89.613 60.4948 90.3008C62.08 90.9262 64.3548 91.2642 67.3191 91.3148C71.8523 91.3384 76.0945 91.5262 80.0458 91.8784C84.0595 92.2164 87.6687 92.9413 90.8733 94.0531C94.0779 95.1649 96.726 96.862 98.8177 99.1445C100.958 101.35 102.403 104.403 103.155 108.301C103.672 110.874 103.593 113.714 102.918 116.819C102.243 119.925 100.933 122.978 98.9872 125.977C97.0275 128.915 94.407 131.542 91.1258 133.86C87.8446 136.178 83.8945 137.86 79.2754 138.905C76.3417 139.57 73.2578 140.005 70.0237 140.213C66.7896 140.42 63.648 140.311 60.5989 139.886C57.6121 139.447 54.8598 138.593 52.3418 137.326C50.1017 136.127 48.3004 134.402 46.9377 132.152C45.6375 129.887 44.9303 127.488 44.816 124.954C44.6877 122.359 45.2995 119.989 46.6516 117.846C48.066 115.688 50.3438 114.155 53.4848 113.247C53.2846 115.261 54.0448 117.025 55.7655 118.538C57.5344 119.975 59.9023 121.014 62.869 121.654C65.8216 122.233 68.9179 122.286 72.1578 121.815C75.5226 121.316 78.3657 120.541 80.687 119.49C83.0707 118.426 84.2108 117.085 84.1071 115.468C83.9953 113.525 83.2816 112.111 81.966 111.228C80.6505 110.345 78.9928 109.834 76.993 109.696C74.9791 109.496 72.8374 109.456 70.5679 109.576C68.2843 109.634 66.1567 109.656 64.1851 109.643C61.5329 109.522 58.807 109.221 56.0075 108.739C53.2563 108.181 50.6288 107.299 48.1249 106.094C45.6835 104.875 43.5318 103.197 41.6698 101.059C39.8078 98.9218 38.4781 96.2371 37.6808 93.0054C36.7563 89.2119 36.7734 85.6646 37.7321 82.3634C38.6766 78.9997 40.3272 76.0012 42.6839 73.3678C45.0264 70.672 47.8636 68.4219 51.1954 66.6176C54.5755 64.7368 58.1382 63.3724 61.8834 62.5244Z" fill="white"/>
<path fill-rule="evenodd" clip-rule="evenodd" d="M176.104 49.4179L176.109 49.4302C176.128 49.4829 176.149 49.5345 176.173 49.5847C185.98 72.8244 186.739 72.5466 197.071 68.7641L197.398 68.6446L199.142 73.5068L192.452 75.9063C191.559 76.2266 191.095 77.2113 191.415 78.1044C191.735 78.9974 192.72 79.4623 193.613 79.142L209.791 73.3392C210.684 73.0189 211.149 72.0341 210.829 71.1411C210.508 70.2481 209.524 69.7832 208.631 70.1035L202.378 72.3463L200.634 67.4852L200.763 67.4399C211.158 63.7883 211.908 63.5245 204.677 39.2509C204.381 38.2587 203.257 37.7979 202.336 38.2015C202.298 38.2123 202.26 38.2244 202.223 38.2378L177.146 47.2321C176.717 47.386 176.367 47.704 176.172 48.1163C176.151 48.1619 176.131 48.2083 176.114 48.2552C175.976 48.6167 175.96 49.0251 176.104 49.4179ZM180.018 49.8539C181.754 53.9466 183.182 57.2178 184.43 59.819C186.36 63.8451 187.634 65.7598 188.616 66.6548C189.227 67.2134 189.639 67.3579 190.749 67.1697C191.982 66.9613 193.433 66.4316 195.702 65.6033L195.703 65.6027C197.068 65.1012 198.437 64.6102 199.809 64.13L199.813 64.1288C202.089 63.3271 203.546 62.8135 204.63 62.1909C205.607 61.6306 205.833 61.2574 205.95 60.4377C206.139 59.1226 205.906 56.8342 204.837 52.4994C204.147 49.698 203.17 46.2652 201.909 42.0021L180.018 49.8539ZM212.118 59.9875L211.271 60.2914C211.338 59.2319 211.269 58.044 211.086 56.7039C211.814 56.4222 212.225 56.0789 212.474 55.7515C212.82 55.3332 212.914 55.0021 212.96 54.328C213.075 52.9978 212.63 51.2329 211.872 49.12C211.114 47.0071 210.336 45.3617 209.402 44.4075C208.937 43.9168 208.655 43.7204 208.122 43.6177C208.049 43.6005 207.971 43.5861 207.889 43.5759C207.575 42.4943 207.241 41.3568 206.886 40.16C207.584 40.0815 208.263 40.1173 208.92 40.2746C210 40.5574 211.107 41.2489 211.861 42.0043C213.365 43.5447 214.346 45.8352 215.108 47.9594C215.87 50.0836 216.568 52.4751 216.386 54.6202C216.284 55.6832 215.87 56.9217 215.215 57.8249C214.477 58.8017 213.428 59.5175 212.118 59.9875ZM184.615 69.8521L183.768 70.1559C182.457 70.6259 181.193 70.7399 180.002 70.4548C178.922 70.1737 177.816 69.4806 177.061 68.7251C175.557 67.1847 174.577 64.8942 173.815 62.77C173.053 60.6458 172.354 58.2543 172.536 56.1092C172.638 55.0463 173.053 53.8093 173.707 52.9045C174.114 52.3657 174.616 51.9061 175.204 51.5235C175.691 52.6729 176.156 53.7635 176.602 54.7977C176.545 54.858 176.494 54.9182 176.448 54.978C176.102 55.3963 176.009 55.7273 175.962 56.4014C175.848 57.7316 176.292 59.4965 177.05 61.6094C177.808 63.7223 178.586 65.3677 179.52 66.3219C179.985 66.8127 180.267 67.0091 180.801 67.1117C181.201 67.2065 181.736 67.2103 182.477 66.9652C183.187 68.1162 183.89 69.077 184.615 69.8521Z" fill="white"/>
<path fill-rule="evenodd" clip-rule="evenodd" d="M515.061 145.405L528.761 146.24L525.997 159.713L512.677 157.057L515.061 145.405ZM525.666 161.263L522.903 174.749L509.995 170.094L512.39 158.439L525.666 161.263ZM530.42 146.321L548.623 147.247L545.281 163.5L527.603 160.018L530.42 146.321ZM544.905 165.351L541.574 181.53L524.464 175.287L527.234 161.686L544.905 165.351Z" fill="white"/>
<path fill-rule="evenodd" clip-rule="evenodd" d="M330.874 32.6623C339.223 31.2531 347.189 36.0083 350.116 43.6171C357.735 42.1395 365.301 47.3713 366.594 55.0298C367.881 62.6539 362.743 69.8777 355.119 71.1644L306.802 79.3187C301.084 80.2837 295.666 76.4307 294.701 70.7124C293.736 64.9941 297.589 59.5765 303.307 58.6115C302.342 52.8932 306.196 47.4756 311.914 46.5106C313.519 46.2397 315.1 46.3483 316.566 46.7714C317.853 39.7328 323.41 33.9219 330.874 32.6623ZM359.691 56.1947C360.335 60.0069 357.766 63.6186 353.954 64.262L305.637 72.4163C303.731 72.738 301.925 71.4536 301.604 69.5475C301.282 67.6414 302.566 65.8356 304.472 65.5139L305.986 65.2585C309.6 64.6486 311.678 60.8047 310.21 57.4466C309.888 55.5405 311.172 53.7346 313.079 53.413C314.052 53.2487 315.569 53.5787 317.261 54.0395C319.661 54.6933 321.864 52.6807 322.21 50.2178C322.916 45.1896 325.981 40.5869 332.038 39.5647C337.757 38.5996 343.174 42.453 344.139 48.1709C344.463 50.0867 346.939 51.9979 348.746 51.2844C349.679 50.9158 350.636 50.624 351.624 50.4572C355.436 49.8138 359.048 52.3825 359.691 56.1947Z" fill="white"/>
<path fill-rule="evenodd" clip-rule="evenodd" d="M589.961 84.8648C601.558 84.8648 610.961 75.462 610.961 63.8648C610.961 52.2675 601.558 42.8648 589.961 42.8648C578.364 42.8648 568.961 52.2675 568.961 63.8648C568.961 75.462 578.364 84.8648 589.961 84.8648ZM600.153 56.0526C600.533 55.3696 600.413 54.5179 599.861 53.9654C599.308 53.4127 598.456 53.2935 597.773 53.673L588.385 58.8888C586.956 59.6825 585.779 60.86 584.985 62.2884L579.769 71.677C579.39 72.36 579.509 73.2119 580.062 73.7644C580.614 74.3168 581.466 74.436 582.149 74.0566L591.538 68.8407C592.966 68.0473 594.144 66.8695 594.937 65.4412L600.153 56.0526ZM590.085 61.9484L594.119 59.7071L591.878 63.7414C591.401 64.5986 590.695 65.305 589.838 65.7812L585.804 68.0224L588.045 63.9882C588.521 63.1312 589.228 62.4245 590.085 61.9484Z" fill="white"/>
<path fill-rule="evenodd" clip-rule="evenodd" d="M112.603 62.439C124.717 55.2579 128.716 39.6141 121.535 27.5002C114.354 15.3864 98.7104 11.3871 86.5966 18.5682C74.4828 25.7493 70.4834 41.3931 77.6645 53.507C84.8457 65.6208 100.489 69.6201 112.603 62.439ZM110.978 59.6971C121.074 53.7123 124.778 39.2214 118.793 29.1257C112.809 19.0299 98.3178 15.3253 88.222 21.3101C78.1262 27.2949 74.4217 41.7858 80.4065 51.8816C83.4493 57.0144 88.6896 60.4944 94.4339 61.8897L85.1922 28.9257C85.0781 28.5186 85.1305 28.0829 85.3377 27.7144C85.5449 27.346 85.89 27.0749 86.297 26.9608C86.7041 26.8468 87.1398 26.8991 87.5083 27.1063C87.8767 27.3135 88.1478 27.6586 88.2619 28.0657L88.3751 28.4692C89.7158 26.9148 92.582 26.646 97.7023 27.7793C103.744 29.1168 106.616 27.3978 108.266 26.41C109.853 25.4604 110.31 25.1876 111.363 28.9452C113.514 36.6186 115.951 46.2273 103.215 44.8917C98.0035 44.3458 95.173 45.0529 93.4679 45.4801C93.4273 45.4897 93.3868 45.4995 93.3464 45.5095C93.2853 45.5253 93.2243 45.5411 93.1652 45.5539L97.7257 61.8262C97.7839 62.032 97.8001 62.2474 97.7732 62.4595C102.33 62.9115 106.995 62.058 110.978 59.6971Z" fill="white"/>
<path fill-rule="evenodd" clip-rule="evenodd" d="M204.087 149.944C204.698 149.334 205.714 149.273 206.325 149.882L206.46 150.019C207.042 150.599 207.087 151.53 206.512 152.116C206.47 152.159 206.429 152.201 206.387 152.243C204.978 153.65 203.671 154.58 202.301 154.933C202.175 154.965 202.045 154.993 201.916 155.015C200.613 155.246 199.242 154.957 197.665 154.07C196.191 153.239 194.54 151.887 192.597 149.944C186.164 143.51 186.196 140.26 190.299 136.156C194.404 132.053 197.654 132.02 204.087 138.453C204.801 139.167 205.433 139.84 205.99 140.48C206.156 140.67 205.976 140.967 205.727 140.935C204.819 140.815 203.965 140.878 203.158 141.088C202.672 141.214 202.144 141.107 201.79 140.753C198.608 137.571 196.858 136.703 195.891 136.575C195.296 136.495 194.425 136.627 192.597 138.453C190.77 140.282 190.639 141.153 190.718 141.747C190.847 142.714 191.715 144.464 194.896 147.646C195.598 148.35 196.232 148.94 196.802 149.434C196.877 149.499 196.95 149.562 197.023 149.624C198.39 150.781 199.38 151.367 200.096 151.639C200.366 151.739 200.597 151.798 200.793 151.824C201.39 151.904 202.261 151.772 204.087 149.944ZM209.076 148.158C207.594 146.874 206.536 146.239 205.782 145.953C205.512 145.85 205.282 145.794 205.083 145.768C204.487 145.688 203.618 145.82 201.79 147.646C201.18 148.257 200.163 148.319 199.554 147.708L199.419 147.573C198.837 146.991 198.79 146.06 199.367 145.475C199.407 145.433 199.45 145.391 199.492 145.348C200.899 143.941 202.207 143.012 203.577 142.659C204.996 142.293 206.479 142.545 208.213 143.522C209.685 144.351 211.338 145.704 213.28 147.646C219.715 154.081 219.682 157.331 215.578 161.436C211.475 165.539 208.225 165.571 201.79 159.136C201.078 158.425 200.444 157.752 199.887 157.112C199.721 156.922 199.901 156.623 200.152 156.657C201.06 156.777 201.911 156.714 202.721 156.504C203.207 156.377 203.733 156.484 204.087 156.839C207.269 160.02 209.019 160.888 209.986 161.017C210.582 161.096 211.453 160.965 213.28 159.136C215.108 157.31 215.24 156.439 215.16 155.843C215.032 154.876 214.164 153.126 210.982 149.944C210.279 149.242 209.646 148.652 209.076 148.158Z" fill="white"/>
</svg>
